#!OML:ASF F:\VICON\USERDATA\INSTALL\Justin_Nancy\Justin_Nancy.ASF
:FULLY-SPECIFIED
:DEGREES
79
root 12.9181 17.1198 -10.1991 -0.510952 5.89146 10.4063
lowerback 8.5442 -1.77312 -8.60561
upperback 0.193309 -3.19508 0.172219
thorax -4.1189 -1.41211 5.3899
lowerneck -15.3833 -3.30613 -10.9834
upperneck 23.2298 -3.26652 5.94653
head 10.2473 -1.79106 3.52285
rclavicle -1.43125e-014 -1.90833e-014
rhumerus -43.9708 -18.5981 -70.3638
rradius 27.3113
rwrist 12.932
rhand -10.5342 10.2566
rfingers 7.12502
rthumb 15.4692 -19.1445
lclavicle -1.43125e-014 -1.90833e-014
lhumerus -29.2936 4.4881 83.1124
lradius 29.3964
lwrist -1.15974
lhand -14.6117 29.3352
lfingers 7.12502
lthumb 11.5393 58.9975
rfemur -33.6948 -8.28834 17.9603
rtibia 54.1798
rfoot -11.7424 -8.28862
rtoes -8.87325
lfemur -10.215 0.228689 -27.4711
ltibia 33.0047
lfoot -16.4215 2.10832
ltoes -5.65261
80
root 12.8843 17.1104 -10.0025 -0.281415 5.93312 10.7184
lowerback 8.48099 -1.84706 -8.74693
upperback 0.232266 -3.30441 0.0425953
thorax -4.02557 -1.47026 5.33882
lowerneck -15.5023 -3.51032 -10.8865
upperneck 23.0461 -3.55961 5.93628
head 10.2301 -1.91391 3.45811
rclavicle 9.98893e-015 -8.74653e-015
rhumerus -44.43 -19.0904 -70.1597
rradius 27.131
rwrist 13.0113
rhand -10.5866 10.0997
rfingers 7.12502
rthumb 15.4187 -19.3053
lclavicle 9.98893e-015 -8.74653e-015
lhumerus -28.5254 3.34594 83.0309
lradius 30.0167
lwrist -0.896334
lhand -13.4384 32.2166
lfingers 7.12502
lthumb 12.6706 61.8123
rfemur -34.338 -8.4683 17.6959
rtibia 51.1582
rfoot -11.1612 -8.37118
rtoes -8.75935
lfemur -9.40556 0.259752 -27.6653
ltibia 32.3376
lfoot -16.6341 2.20926
ltoes -5.27062
81
root 12.8511 17.1019 -9.80775 -0.00981536 5.81959 11.0754
lowerback 8.37142 -1.92515 -8.93033
upperback 0.253514 -3.41712 -0.0418152
thorax -3.91922 -1.52921 5.35701
lowerneck -15.4717 -3.7067 -11.0401
upperneck 22.7845 -3.80262 5.97737
head 10.1587 -2.03084 3.46011
rclavicle 6.95746e-015 -1.11319e-014
rhumerus -44.7662 -19.5664 -69.835
rradius 26.8422
rwrist 13.1122
rhand -10.4419 10.5267
rfingers 7.12502
rthumb 15.5581 -18.8674
lclavicle 6.95746e-015 -1.11319e-014
lhumerus -27.8005 2.85187 82.8412
lradius 30.4458
lwrist -1.10838
lhand -12.1892 36.9782
lfingers 7.12502
lthumb 13.8747 66.4954
rfemur -34.8795 -8.40199 17.321
rtibia 48.0185
rfoot -10.3486 -8.30721
rtoes -6.92997
lfemur -8.2454 0.18804 -27.9295
ltibia 31.4908
lfoot -17.1865 2.7041
ltoes -4.89806
82
root 12.8146 17.093 -9.61049 0.140564 5.93425 11.6459
lowerback 8.53475 -2.07447 -9.36202
upperback 0.210168 -3.68192 -0.15637
thorax -3.99733 -1.6474 5.51388
lowerneck -15.5357 -3.80941 -11.1842
upperneck 22.5952 -3.90717 6.01971
head 10.118 -2.08284 3.48094
rclavicle 2.87244e-014 -1.51076e-014
rhumerus -45.3436 -19.5844 -69.6714
rradius 26.8377
rwrist 12.8642
rhand -10.4362 10.4678
rfingers 7.12502
rthumb 15.5636 -18.926
lclavicle 2.87244e-014 -1.51076e-014
lhumerus -27.1639 2.54592 82.6638
lradius 30.6591
lwrist -1.1035
lhand -14.8648 29.9775
lfingers 7.12502
lthumb 11.2951 59.6533
rfemur -35.0885 -8.54549 16.6476
rtibia 44.7712
rfoot -9.71455 -8.47341
rtoes -4.90021
lfemur -6.95923 -0.0307812 -28.4018
ltibia 30.6173
lfoot -17.9015 3.19246
ltoes -4.51575
83
root 12.7747 17.0845 -9.40784 0.388547 6.03334 12.0013
lowerback 8.5465 -2.19077 -9.55207
upperback 0.128458 -3.86528 -0.24644
thorax -4.05532 -1.72927 5.54613
lowerneck -15.9237 -3.85662 -11.1505
upperneck 22.7705 -3.93452 5.9897
head 10.2565 -2.09326 3.46112
rclavicle -6.13251e-014 -3.18055e-015
rhumerus -46.0278 -19.7495 -69.4527
rradius 26.863
rwrist 12.7607
rhand -10.366 10.0319
rfingers 7.12502
rthumb 15.6312 -19.3566
lclavicle -6.13251e-014 -3.18055e-015
lhumerus -26.6471 0.74154 83.1068
lradius 30.3975
lwrist 4.26785
lhand -19.5559 21.5091
lfingers 7.12502
lthumb 6.76851 51.3809
rfemur -35.3364 -8.46078 16.2261
rtibia 41.4144
rfoot -7.99138 -8.86089
rtoes -6.64016
lfemur -6.05426 -0.20853 -28.6327
ltibia 29.7552
lfoot -18.13 3.71976
ltoes -5.12698
84
root 12.7354 17.0699 -9.20925 0.685215 6.01533 12.2168
lowerback 8.39574 -2.29075 -9.60233
upperback 0.0839607 -3.99001 -0.2705
thorax -3.99582 -1.79202 5.55285
lowerneck -16.4734 -3.95904 -11.1841
upperneck 23.13 -3.992 5.90076
head 10.4978 -2.13097 3.42881
rclavicle 4.47266e-015 -2.8625e-014
rhumerus -46.5653 -19.7967 -69.2995
rradius 26.9237
rwrist 12.6481
rhand -10.3925 10.212
rfingers 7.12502
rthumb 15.6057 -19.1784
lclavicle 4.47266e-015 -2.8625e-014
lhumerus -25.7589 0.644042 82.7761
lradius 30.2419
lwrist 4.02676
lhand -18.4284 22.4773
lfingers 7.12502
lthumb 7.85682 52.3113
rfemur -35.5898 -8.04964 15.8626
rtibia 37.9403
rfoot -6.24147 -9.33066
rtoes -5.42872
lfemur -5.2434 -0.0266215 -28.6472
ltibia 28.8707
lfoot -18.2631 3.92139
ltoes -6.99631
85
root 12.6983 17.0509 -9.01141 0.917197 5.93815 12.6176
lowerback 8.35639 -2.43366 -9.844
upperback -0.0226114 -4.20748 -0.311648
thorax -4.0378 -1.88928 5.66558
lowerneck -16.6852 -4.05561 -11.3244
upperneck 23.2841 -4.05286 5.83984
head 10.6044 -2.17842 3.42215
rclavicle -1.72943e-014 7.95139e-016
rhumerus -47.0852 -19.6417 -69.1419
rradius 26.9427
rwrist 12.4876
rhand -10.3115 9.98361
rfingers 7.12502
rthumb 15.6836 -19.4008
lclavicle -1.72943e-014 7.95139e-016
lhumerus -24.9868 1.11257 82.3417
lradius 29.9844
lwrist 3.12395
lhand -17.8466 23.9867
lfingers 7.12502
lthumb 8.41833 53.799
rfemur -35.6689 -7.53463 15.1795
rtibia 34.4173
rfoot -4.09265 -9.85461
rtoes -5.52263
lfemur -4.19619 0.156276 -28.8507
ltibia 27.9796
lfoot -18.7539 3.91433
ltoes -8.52901
86
root 12.6572 17.0372 -8.81321 1.09911 5.69831 12.8568
lowerback 8.21539 -2.53973 -9.97629
upperback -0.168837 -4.35312 -0.279058
thorax -4.0774 -1.95133 5.78309
lowerneck -16.4361 -4.22318 -11.6569
upperneck 23.1632 -4.24073 5.8987
head 10.5426 -2.2891 3.47106
rclavicle -5.97348e-014 1.59028e-014
rhumerus -47.5873 -19.4627 -68.8469
rradius 26.7779
rwrist 12.3369
rhand -10.0693 9.43431
rfingers 7.12502
rthumb 15.9169 -19.9316
lclavicle -5.97348e-014 1.59028e-014
lhumerus -24.1431 2.30344 81.6403
lradius 29.7285
lwrist -0.545237
lhand -14.2046 29.2326
lfingers 7.12502
lthumb 11.9318 58.8725
rfemur -35.6416 -6.69295 14.5973
rtibia 30.9905
rfoot -1.77548 -10.5395
rtoes -6.28517
lfemur -3.07367 0.434614 -28.8568
ltibia 27.0847
lfoot -19.4354 3.80613
ltoes -9.74569
87
root 12.6117 17.0215 -8.61363 1.31516 5.41226 13.2227
lowerback 7.88081 -2.59864 -10.257
upperback -0.252219 -4.42581 -0.32401
thorax -3.94884 -1.98645 5.8785
lowerneck -16.2198 -4.51202 -11.8114
upperneck 23.0527 -4.61391 5.82902
head 10.5031 -2.48348 3.41633
rclavicle -3.54831e-014 1.59028e-015
rhumerus -48.0293 -19.4895 -68.5828
rradius 26.4958
rwrist 12.376
rhand -9.9495 9.4332
rfingers 7.12502
rthumb 16.0323 -19.9235
lclavicle -3.54831e-014 1.59028e-015
lhumerus -23.3885 2.36908 81.3401
lradius 29.2852
lwrist -0.548965
lhand -14.5463 29.694
lfingers 7.12502
lthumb 11.6023 59.3528
rfemur -35.6206 -5.71955 13.8208
rtibia 27.7932
rfoot 0.00642304 -11.5392
rtoes -5.73911
lfemur -2.06617 0.841214 -28.9632
ltibia 26.0806
lfoot -19.2016 3.31026
ltoes -7.45319
